<?xml version="1.0" encoding="UTF-8"?>
<svg xmlns="http://www.w3.org/2000/svg" xmlns:xlink="http://www.w3.org/1999/xlink" viewBox="0 0 512 512" width="512px" height="512px">
<g id="surface52788922">
<path style=" stroke:none;fill-rule:nonzero;fill:rgb(100%,100%,100%);fill-opacity:1;" d="M 256 64 C 150.152344 64 64 150.152344 64 256 C 64 361.847656 150.152344 448 256 448 C 361.847656 448 448 361.847656 448 256 C 448 150.152344 361.847656 64 256 64 Z M 256 96 C 344.554688 96 416 167.445312 416 256 C 416 336.4375 356.988281 402.582031 279.8125 414.0625 L 279.8125 302.65625 L 325.375 302.65625 L 332.53125 256.375 L 279.8125 256.375 L 279.8125 231.09375 C 279.8125 211.878906 286.125 194.8125 304.09375 194.8125 L 332.96875 194.8125 L 332.96875 154.4375 C 327.898438 153.75 317.164062 152.25 296.875 152.25 C 254.507812 152.25 229.6875 174.617188 229.6875 225.59375 L 229.6875 256.375 L 186.125 256.375 L 186.125 302.65625 L 229.6875 302.65625 L 229.6875 413.65625 C 153.742188 401.128906 96 335.570312 96 256 C 96 167.445312 167.445312 96 256 96 Z M 256 96 "/>
</g>
</svg>
